<svg width="28" height="28" viewBox="0 0 28 28" fill="none" xmlns="http://www.w3.org/2000/svg">
<path d="M25.375 24.5H24.5V11.375C24.4992 10.679 24.2224 10.0118 23.7303 9.51968C23.2382 9.02757 22.571 8.75076 21.875 8.75H15.75V6.125C15.7492 5.42904 15.4724 4.7618 14.9803 4.26968C14.4882 3.77757 13.821 3.50076 13.125 3.5H6.125C5.42904 3.50076 4.7618 3.77757 4.26968 4.26968C3.77757 4.7618 3.50076 5.42904 3.5 6.125V24.5H2.625C2.39294 24.5 2.17038 24.5922 2.00628 24.7563C1.84219 24.9204 1.75 25.1429 1.75 25.375C1.75 25.6071 1.84219 25.8296 2.00628 25.9937C2.17038 26.1578 2.39294 26.25 2.625 26.25H25.375C25.6071 26.25 25.8296 26.1578 25.9937 25.9937C26.1578 25.8296 26.25 25.6071 26.25 25.375C26.25 25.1429 26.1578 24.9204 25.9937 24.7563C25.8296 24.5922 25.6071 24.5 25.375 24.5ZM14 9.625V24.5H5.25V6.125C5.25023 5.89301 5.34249 5.67058 5.50654 5.50654C5.67058 5.34249 5.89301 5.25023 6.125 5.25H13.125C13.357 5.25023 13.5794 5.34249 13.7435 5.50654C13.9075 5.67058 13.9998 5.89301 14 6.125V9.625ZM22.75 24.5H15.75V10.5H21.875C22.107 10.5002 22.3294 10.5925 22.4935 10.7565C22.6575 10.9206 22.7498 11.143 22.75 11.375V24.5Z" fill="#79C6F9"/>
<path d="M8.75 7H7V8.75H8.75V7Z" fill="#79C6F9"/>
<path d="M12.25 7H10.5V8.75H12.25V7Z" fill="#79C6F9"/>
<path d="M12.25 10.5H10.5V12.25H12.25V10.5Z" fill="#79C6F9"/>
<path d="M8.75 10.5H7V12.25H8.75V10.5Z" fill="#79C6F9"/>
<path d="M8.75 14H7V15.75H8.75V14Z" fill="#79C6F9"/>
<path d="M12.25 14H10.5V15.75H12.25V14Z" fill="#79C6F9"/>
<path d="M8.75 17.5H7V19.25H8.75V17.5Z" fill="#79C6F9"/>
<path d="M12.25 17.5H10.5V19.25H12.25V17.5Z" fill="#79C6F9"/>
<path d="M8.75 21H7V22.75H8.75V21Z" fill="#79C6F9"/>
<path d="M12.25 21H10.5V22.75H12.25V21Z" fill="#79C6F9"/>
<path d="M20.125 13.125H18.375V14.875H20.125V13.125Z" fill="#79C6F9"/>
<path d="M20.125 16.625H18.375V18.375H20.125V16.625Z" fill="#79C6F9"/>
<path d="M20.125 20.125H18.375V21.875H20.125V20.125Z" fill="#79C6F9"/>
</svg>
